<mxfile host="app.diagrams.net" modified="2023-10-10T06:54:54.077Z" agent="Mozilla/5.0 (Windows NT 10.0; Win64; x64) AppleWebKit/537.36 (KHTML, like Gecko) Chrome/117.0.0.0 Safari/537.36" version="22.0.4" etag="FHYiUQXfpRmX1K3OgM48" type="github">
  <diagram name="Page-1" id="iHXtFhjIR6-iCHLbBurd">
    <mxGraphModel>
      <root>
        <mxCell id="0" />
        <mxCell id="1" parent="0" />
      </root>
    </mxGraphModel>
  </diagram>
</mxfile>
